# xmcd
# Track frame offsets:
# 150
# 13960
# 24255
# 41454
# 54330
# 68478
# 80899
# 95171
# 114403
# 132607
# 145622
# 158813
# 173686
#
# Disc length: 2468 seconds
# Revision: 0
# Processed by: cddbd v1.5.1PL0 Copyright (c) Steve Scherf et al.
# Submitted via: VisiTrax 2.9.9.202 - For more info visit www.synapsa.com
#
DISCID=a809a20d
DTITLE=Parsons, Gram - Dim Lights,Thick Smoke And Loud Loud Music
DYEAR=1900
DGENRE=
TTITLE0=Six More Days And I'll Be Gone
TTITLE1=Close Up The Honky Tonks
TTITLE2=Sing Me Back Home
TTITLE3=Tonight The Bottle Let Me Down
TTITLE4=Your Angel Steps Out Of Heaven Each Night
TTITLE5=Crazy Arms
TTITLE6=Together Again
TTITLE7=Honky Tonk Woman
TTITLE8=Green Green Grass Of Home
TTITLE9=Dim Lights Thick Smoke And Loud Loud Music
TTITLE10=Boney Maroney
TTITLE11=To Love Somebody
TTITLE12=Break My Mind
EXTD=
EXTT0=
EXTT1=
EXTT2=
EXTT3=
EXTT4=
EXTT5=
EXTT6=
EXTT7=
EXTT8=
EXTT9=
EXTT10=
EXTT11=
EXTT12=
PLAYORDER=
